<svg width="91" height="94" viewBox="0 0 91 94" fill="none" xmlns="http://www.w3.org/2000/svg">
<path d="M30.4373 72.9602C30.4373 73.3273 30.0153 73.6211 29.4833 73.6211C28.8778 73.6762 28.4558 73.3824 28.4558 72.9602C28.4558 72.593 28.8778 72.2992 29.4099 72.2992C29.9603 72.2441 30.4373 72.5379 30.4373 72.9602ZM24.7315 72.134C24.603 72.5012 24.97 72.9234 25.5204 73.0336C25.9974 73.2172 26.5478 73.0336 26.6579 72.6664C26.7679 72.2992 26.4194 71.877 25.869 71.7117C25.3919 71.5832 24.8599 71.7668 24.7315 72.134ZM32.8407 71.8219C32.3087 71.9504 31.9417 72.2992 31.9968 72.7215C32.0518 73.0887 32.5288 73.3273 33.0792 73.1988C33.6113 73.0703 33.9782 72.7215 33.9232 72.3543C33.8681 72.0055 33.3728 71.7668 32.8407 71.8219ZM44.9129 1.46875C19.4659 1.46875 0 20.8012 0 46.2656C0 66.6262 12.806 84.0492 31.0978 90.1813C33.4462 90.6035 34.2718 89.1531 34.2718 87.9598C34.2718 86.8215 34.2167 80.5426 34.2167 76.6871C34.2167 76.6871 21.374 79.441 18.677 71.216C18.677 71.216 16.5855 65.8734 13.5766 64.4965C13.5766 64.4965 9.3752 61.6141 13.8702 61.6691C13.8702 61.6691 18.4385 62.0363 20.952 66.4059C24.97 73.4926 31.7032 71.4547 34.3268 70.243C34.7488 67.3055 35.9413 65.2676 37.2623 64.0559C27.0065 62.9176 16.6589 61.4305 16.6589 43.7687C16.6589 38.7199 18.0532 36.1863 20.9887 32.9551C20.5117 31.7617 18.9522 26.8414 21.4657 20.4891C25.3002 19.2957 34.125 25.4461 34.125 25.4461C37.7944 24.418 41.7389 23.8855 45.6468 23.8855C49.5546 23.8855 53.4992 24.418 57.1686 25.4461C57.1686 25.4461 65.9933 19.2773 69.8278 20.4891C72.3413 26.8598 70.7819 31.7617 70.3048 32.9551C73.2403 36.2047 75.0383 38.7383 75.0383 43.7687C75.0383 61.4855 64.2321 62.8992 53.9762 64.0559C55.6641 65.5062 57.0952 68.2602 57.0952 72.5746C57.0952 78.7617 57.0401 86.4176 57.0401 87.923C57.0401 89.1164 57.8841 90.5668 60.2141 90.1445C78.5609 84.0492 91 66.6262 91 46.2656C91 20.8012 70.3599 1.46875 44.9129 1.46875ZM17.8331 64.7902C17.5946 64.9738 17.6496 65.3961 17.9615 65.7449C18.255 66.0387 18.677 66.1672 18.9155 65.9285C19.154 65.7449 19.099 65.3227 18.7871 64.9738C18.4935 64.6801 18.0716 64.5516 17.8331 64.7902ZM15.8516 63.3031C15.7232 63.5418 15.9067 63.8355 16.2736 64.0191C16.5671 64.2027 16.9341 64.1477 17.0625 63.8906C17.1909 63.652 17.0075 63.3582 16.6405 63.1746C16.2736 63.0645 15.98 63.1195 15.8516 63.3031ZM21.796 69.8391C21.5024 70.0777 21.6125 70.6285 22.0345 70.9773C22.4565 71.3996 22.9885 71.4547 23.227 71.1609C23.4655 70.9223 23.3554 70.3715 22.9885 70.0227C22.5849 69.6004 22.0345 69.5453 21.796 69.8391ZM19.7044 67.1402C19.4109 67.3238 19.4109 67.8012 19.7044 68.2234C19.998 68.6457 20.4933 68.8293 20.7319 68.6457C21.0254 68.407 21.0254 67.9297 20.7319 67.5074C20.475 67.0852 19.998 66.9016 19.7044 67.1402Z" fill="#C4C4C4"/>
</svg>
