<svg width="118" height="93" viewBox="0 0 118 93" fill="none" xmlns="http://www.w3.org/2000/svg">
<path d="M71.1799 41.5042C71.518 43.2646 71.7593 45.0251 71.7593 47.3087C71.7593 67.2443 58.1884 81.375 37.7599 81.375C18.2006 81.375 2.35986 65.7693 2.35986 46.5C2.35986 27.2307 18.2006 11.625 37.7599 11.625C47.3223 11.625 55.2908 15.0506 61.4725 20.7601L51.8618 29.8476C49.2538 27.3734 44.666 24.4712 37.7599 24.4712C25.6862 24.4712 15.834 34.3199 15.834 46.5C15.834 58.6801 25.6862 68.5288 37.7599 68.5288C51.7652 68.5288 57.0294 58.5849 57.8503 53.4939H37.7599V41.504H71.1799V41.5042ZM105.364 42.6734V32.55H95.0389V42.6734H84.7631V52.8454H95.0389V62.9688H105.364V52.8454H115.64V42.6734H105.364Z" fill="#C4C4C4"/>
</svg>
