<svg width="785" height="556" viewBox="0 0 785 556" fill="none" xmlns="http://www.w3.org/2000/svg">
<path d="M685 271.5L657.5 308.5L516 201.5L499 224L479 144.5L560.5 143L543.5 164.5L685 271.5Z" fill="url(#paint0_linear)"/>
<path d="M644.519 426.752L654.865 450.214C654.865 450.214 634.453 468.61 635.984 473.177L682.192 454.743L667.572 417.529L644.519 426.752Z" fill="#E8505B"/>
<path opacity="0.5" d="M644.519 426.752L654.865 450.214C654.865 450.214 634.453 468.61 635.984 473.177L682.192 454.743L667.572 417.529L644.519 426.752Z" fill="black"/>
<path d="M682.192 454.73L680.572 450.992L636.864 470.128C636.864 470.128 635.167 471.838 635.971 473.203L682.192 454.73Z" fill="#263238"/>
<path d="M725.887 460.012L738.848 482.146C738.848 482.146 720.707 502.737 722.697 507.126L766.507 483.549L747.741 448.185L725.887 460.012Z" fill="#E8505B"/>
<path opacity="0.5" d="M725.887 460.012L738.848 482.146C738.848 482.146 720.707 502.737 722.697 507.126L766.507 483.549L747.741 448.185L725.887 460.012Z" fill="black"/>
<path d="M766.507 483.486L764.44 480.003L723.233 503.911C723.233 503.911 721.741 505.811 722.697 507.062L766.507 483.486Z" fill="#263238"/>
<path d="M669.37 149.618L640.972 151.838L640.028 135.942C640.028 135.942 628.546 135.776 626.862 124.588C625.178 113.4 623.468 87.3995 623.468 87.3995C629.455 83.7668 636.303 81.7984 643.305 81.6975C650.307 81.5965 657.209 83.3668 663.298 86.8254L665.135 87.8715L669.37 149.618Z" fill="#FFBE9D"/>
<path d="M639.99 135.776C645.179 135.148 650.064 132.989 654.023 129.576C654.023 129.576 651.548 138.379 640.219 138.94L639.99 135.776Z" fill="#EB996E"/>
<path d="M665.39 99.6596C665.569 99.5447 672.777 96.2916 673.606 103.997C674.435 111.703 666.538 110.937 666.5 110.72C666.462 110.504 665.39 99.6596 665.39 99.6596Z" fill="#FFBE9D"/>
<path d="M668.541 107.544C668.541 107.544 668.682 107.62 668.924 107.71C669.255 107.809 669.611 107.777 669.919 107.62C670.394 107.257 670.763 106.773 670.988 106.219C671.212 105.665 671.283 105.061 671.195 104.469C671.148 103.809 670.952 103.167 670.621 102.594C670.521 102.362 670.367 102.157 670.172 101.997C669.976 101.837 669.745 101.727 669.498 101.675C669.339 101.652 669.176 101.685 669.039 101.769C668.901 101.853 668.797 101.982 668.745 102.135C668.669 102.351 668.745 102.505 668.745 102.517C668.745 102.53 668.567 102.415 668.592 102.084C668.615 101.889 668.706 101.708 668.847 101.573C668.941 101.48 669.052 101.406 669.175 101.358C669.298 101.31 669.43 101.287 669.562 101.293C669.885 101.323 670.195 101.435 670.462 101.618C670.73 101.801 670.947 102.049 671.093 102.339C671.494 102.968 671.735 103.687 671.794 104.431C671.904 105.113 671.81 105.812 671.524 106.44C671.238 107.069 670.773 107.599 670.187 107.965C669.984 108.055 669.763 108.096 669.541 108.085C669.32 108.074 669.104 108.011 668.911 107.901C668.567 107.735 668.516 107.569 668.541 107.544Z" fill="#EB996E"/>
<path d="M628.304 105.005C628.361 105.422 628.578 105.8 628.909 106.059C629.24 106.319 629.659 106.439 630.077 106.396C630.283 106.384 630.484 106.332 630.669 106.241C630.854 106.15 631.019 106.023 631.153 105.867C631.288 105.711 631.39 105.529 631.453 105.333C631.515 105.137 631.538 104.93 631.519 104.724C631.467 104.306 631.254 103.925 630.925 103.663C630.596 103.401 630.177 103.278 629.758 103.321C629.551 103.334 629.349 103.388 629.163 103.48C628.978 103.572 628.812 103.7 628.677 103.857C628.541 104.014 628.438 104.196 628.374 104.393C628.31 104.591 628.286 104.798 628.304 105.005Z" fill="#263238"/>
<path d="M627.806 102.862C628.036 103.04 629.082 101.969 630.842 101.739C632.603 101.509 633.955 102.186 634.108 101.943C634.261 101.701 633.93 101.484 633.33 101.165C632.509 100.758 631.583 100.611 630.677 100.744C629.781 100.867 628.946 101.269 628.291 101.892C627.819 102.377 627.704 102.785 627.806 102.862Z" fill="#263238"/>
<path d="M645.054 103.066C645.112 103.482 645.329 103.86 645.66 104.12C645.991 104.379 646.41 104.5 646.828 104.456C647.033 104.444 647.234 104.39 647.418 104.298C647.602 104.207 647.766 104.08 647.9 103.924C648.034 103.768 648.136 103.587 648.2 103.392C648.263 103.196 648.287 102.99 648.269 102.785C648.215 102.369 648.001 101.99 647.673 101.728C647.344 101.466 646.927 101.342 646.509 101.382C646.302 101.395 646.1 101.449 645.914 101.541C645.728 101.633 645.563 101.761 645.427 101.918C645.292 102.075 645.189 102.257 645.125 102.454C645.061 102.651 645.037 102.859 645.054 103.066Z" fill="#263238"/>
<path d="M644.786 100.795C645.016 100.986 646.062 99.9147 647.823 99.6723C649.583 99.4299 650.923 100.119 651.089 99.8892C651.255 99.6596 650.91 99.4299 650.298 99.111C649.485 98.6933 648.561 98.5416 647.657 98.6772C646.759 98.8013 645.923 99.2079 645.271 99.8382C644.799 100.323 644.672 100.718 644.786 100.795Z" fill="#263238"/>
<path d="M640.334 114.446C639.384 114.3 638.421 114.266 637.464 114.344C637.017 114.344 636.583 114.344 636.468 114.037C636.381 113.61 636.421 113.166 636.583 112.762C636.838 111.639 637.119 110.453 637.413 109.228C638.22 106.221 638.783 103.153 639.097 100.055C638.049 102.988 637.239 106 636.673 109.062L635.907 112.609C635.698 113.177 635.698 113.801 635.907 114.369C635.993 114.515 636.111 114.64 636.252 114.733C636.394 114.826 636.555 114.885 636.724 114.905C636.973 114.944 637.227 114.944 637.476 114.905C638.445 114.874 639.405 114.72 640.334 114.446Z" fill="#263238"/>
<path d="M645.565 114.93C645.284 114.93 645.565 116.819 644.123 118.375C642.681 119.931 640.691 119.995 640.717 120.263C640.742 120.531 641.214 120.569 642.056 120.467C643.152 120.329 644.164 119.81 644.914 119C645.637 118.222 646.027 117.192 645.998 116.13C645.96 115.339 645.692 114.905 645.565 114.93Z" fill="#263238"/>
<path d="M643.383 94.11C643.625 94.5565 645.309 94.11 647.363 94.11C649.417 94.11 651.191 94.3907 651.344 93.9314C651.433 93.7145 651.089 93.3063 650.362 92.949C649.409 92.5048 648.363 92.2948 647.312 92.3367C646.261 92.363 645.23 92.6338 644.302 93.1276C643.613 93.4849 643.243 93.9059 643.383 94.11Z" fill="#263238"/>
<path d="M627.742 97.7842C628.1 98.1286 629.235 97.5673 630.651 97.3377C632.067 97.108 633.33 97.2356 633.547 96.7891C633.636 96.5722 633.394 96.2022 632.82 95.9088C632.05 95.5562 631.19 95.4493 630.358 95.6026C629.519 95.7283 628.742 96.1169 628.138 96.7126C627.691 97.1846 627.577 97.6056 627.742 97.7842Z" fill="#263238"/>
<path d="M617.013 81.0845C616.841 80.3994 616.843 79.6821 617.02 78.9981C617.196 78.314 617.54 77.6849 618.021 77.1679C618.528 76.6821 619.19 76.3913 619.89 76.3469C620.591 76.3026 621.284 76.5075 621.848 76.9255C621.679 76.4718 621.607 75.9878 621.636 75.5044C621.664 75.0211 621.794 74.5491 622.017 74.119C622.239 73.6888 622.549 73.3099 622.926 73.0067C623.304 72.7034 623.741 72.4825 624.209 72.3582C626.02 71.9883 627.781 73.1492 629.618 73.3788C631.419 73.4942 633.209 73.0243 634.721 72.0393C636.29 71.1463 637.706 69.9981 639.301 69.1561C642.664 67.3617 646.6 66.9675 650.253 68.0593C653.906 69.151 656.98 71.6404 658.807 74.9863C660.014 74.4968 661.342 74.3884 662.612 74.6757C663.883 74.9631 665.035 75.6324 665.913 76.5938C667.649 78.56 668.591 81.1025 668.554 83.7253C668.554 85.4761 668.361 87.2216 667.98 88.9304C667.98 89.0707 667.98 89.2111 668.044 89.3642C668.796 95.5389 669.115 102.874 666.5 103.283C661.92 103.997 661.805 95.2072 661.805 95.2072C655.873 93.8293 656.779 85.1031 655.197 84.0315C653.615 82.9598 650.247 80.3955 639.326 88.0629C635.222 90.6406 630.41 91.8593 625.574 91.5457H625.267H625.191H625.089C623.988 91.4269 622.912 91.1385 621.899 90.691C620.705 90.2105 619.695 89.3613 619.016 88.267C618.691 87.7168 618.532 87.084 618.56 86.4455C618.587 85.8069 618.799 85.19 619.169 84.6693C618.116 83.7109 617.366 82.4645 617.013 81.0845Z" fill="#263238"/>
<path d="M639.99 145.676L641.265 190.162L668.937 130.584L668.248 125.06L639.99 145.676Z" fill="#EBEBEB"/>
<path d="M658.348 278.675C657.34 279.006 599.663 337.296 600.939 347.77C602.214 358.244 643.256 435.798 643.256 435.798L672.598 421.369L645.131 353.396L645.488 349.173L679.054 321.681L677.255 277.488L658.348 278.675Z" fill="#263238"/>
<path d="M670.774 290.169C671.45 291.177 681.426 382.751 684.106 387.484C686.785 392.218 726.869 470.409 726.869 470.409L756.633 458.417L720.299 372.494L724.432 291.177L722.2 268.213L677.255 277.488L670.774 290.169Z" fill="#263238"/>
<path d="M683.582 385.928C683.487 385.629 683.422 385.322 683.391 385.009C683.276 384.346 683.136 383.466 682.957 382.369C682.6 379.996 682.09 376.691 681.477 372.635C680.291 364.329 678.658 352.988 676.846 340.46C675.035 327.932 673.555 316.552 672.407 308.26C671.884 304.177 671.45 300.86 671.131 298.487L670.825 295.821C670.793 295.511 670.793 295.199 670.825 294.89C670.825 294.89 670.901 295.209 671.016 295.808C671.131 296.408 671.271 297.352 671.45 298.449L672.917 308.196C674.116 316.488 675.749 327.83 677.548 340.371C679.347 352.911 680.852 364.266 681.988 372.571C682.523 376.64 682.957 379.957 683.263 382.33C683.391 383.44 683.506 384.333 683.582 384.997C683.614 385.306 683.614 385.618 683.582 385.928Z" fill="#455A64"/>
<path d="M719.546 369.866C719.17 372.33 718.59 374.758 717.811 377.125C717.232 379.548 716.446 381.917 715.464 384.206C715.854 381.758 716.447 379.347 717.237 376.998C717.795 374.557 718.567 372.17 719.546 369.866Z" fill="#455A64"/>
<path d="M724.05 390.61C723.383 389.954 722.831 389.191 722.417 388.352C720.195 384.396 719.23 379.857 719.648 375.339C719.68 374.408 719.87 373.489 720.21 372.622C719.506 378.874 720.849 385.186 724.037 390.61H724.05Z" fill="#455A64"/>
<path d="M635.588 343.509C639.158 344.915 642.087 347.585 643.817 351.01C643.664 351.112 642.235 349.033 639.99 346.979C637.744 344.925 635.448 343.675 635.588 343.509Z" fill="#455A64"/>
<path d="M640.053 340.804C641.246 341.628 642.219 342.732 642.886 344.019C643.742 345.194 644.298 346.561 644.506 348C643.72 346.824 643 345.606 642.35 344.351C641.52 343.212 640.753 342.028 640.053 340.804Z" fill="#455A64"/>
<path d="M644.034 207.206L651.395 243.77L657.391 294.8C657.391 294.8 682.115 291.343 692.653 288.013C704.875 284.186 731.462 280.843 731.462 280.843L726.971 285.283C736.488 282.617 742.548 273.546 742.548 273.546C726.168 258.352 712.134 227.019 712.134 227.019L699.67 165.119C699.67 165.119 697.782 156.393 696.634 152.502C695.485 148.611 676.566 136.095 673.938 134.513L672.292 133.735L671.769 128.772L669.817 127.599L649.354 146.212C645.365 149.826 642.83 154.77 642.222 160.118C641.357 167.847 641.059 175.628 641.329 183.401C641.572 190.736 644.034 207.206 644.034 207.206Z" fill="#4A538A"/>
<path d="M658.093 143.89C658.093 143.89 647.274 149.695 645.399 154.619C643.524 159.544 649.099 213.534 649.099 213.534L610.226 214.274L610.073 237.429C610.073 237.429 671.807 242.315 674.218 238.973C677.459 234.457 681.235 192.267 681.235 192.267L682.638 161.904C682.638 161.904 679.105 138.762 658.093 143.89Z" fill="#4A538A"/>
<g opacity="0.3">
<path opacity="0.3" d="M651.395 243.77C656.423 245.343 661.728 245.835 666.959 245.211C672.432 244.714 678.007 241.716 680.074 236.613C681.656 232.722 680.993 228.32 681.235 224.123C681.452 220.462 682.345 216.889 682.906 213.279C683.468 209.669 681.63 203.073 680.355 199.565C680.355 199.565 678.977 224.621 675.048 235.146C674.61 236.615 673.781 237.939 672.649 238.973C671.258 240.096 669.345 240.249 667.546 240.376C662.583 240.899 650.617 240.032 650.617 240.032" fill="black"/>
</g>
<path d="M682.613 165.221C682.629 165.408 682.629 165.596 682.613 165.782C682.613 166.165 682.613 166.701 682.549 167.39C682.549 168.844 682.383 170.924 682.256 173.59C682.128 176.256 681.937 179.586 681.733 183.401C681.528 187.215 681.375 191.591 680.903 196.388C680.431 201.185 679.985 206.441 679.385 212.08C678.786 217.719 678.109 223.74 677.025 230.03C676.77 231.637 676.412 233.227 675.953 234.788C675.423 236.423 674.452 237.88 673.147 238.998C671.806 240.155 670.082 240.769 668.312 240.721C666.602 240.721 664.88 240.721 663.209 240.721C656.268 240.542 649.099 240.198 641.75 239.789C630.715 239.19 620.062 238.514 610.15 237.799H609.869V237.519C609.869 229.29 609.958 221.546 610.009 214.389V214.121H610.277L647.797 213.317L658.284 213.139H661.053C661.678 213.139 661.997 213.139 661.997 213.139C661.997 213.139 661.678 213.139 661.053 213.202L658.297 213.317L647.797 213.649L610.29 214.682L610.558 214.414C610.558 221.559 610.558 229.303 610.481 237.531L610.188 237.225C620.126 237.901 630.766 238.59 641.788 239.19C649.124 239.585 656.294 239.955 663.221 240.134C664.956 240.134 666.666 240.198 668.324 240.134C669.958 240.195 671.553 239.634 672.789 238.565C674.008 237.522 674.914 236.162 675.405 234.635C675.854 233.102 676.208 231.543 676.464 229.966C677.548 223.702 678.237 217.68 678.888 212.105C679.538 206.53 680.036 201.236 680.482 196.439C680.929 191.642 681.146 187.279 681.401 183.464C681.656 179.65 681.86 176.371 682.026 173.667C682.192 170.962 682.345 168.921 682.447 167.479C682.447 166.79 682.536 166.203 682.575 165.859C682.562 165.646 682.575 165.431 682.613 165.221Z" fill="#263238"/>
<path d="M617.728 237.085C617.426 233.351 617.337 229.602 617.46 225.858C617.375 222.112 617.503 218.363 617.842 214.631C618.144 218.365 618.233 222.114 618.11 225.858C618.195 229.604 618.067 233.353 617.728 237.085Z" fill="#263238"/>
<path d="M613.62 218.152C613.543 218.152 613.926 217.668 614.666 217.923C614.882 217.998 615.072 218.135 615.212 218.316C615.353 218.497 615.437 218.715 615.457 218.943C615.49 219.228 615.433 219.516 615.293 219.767C615.154 220.017 614.939 220.218 614.679 220.339C614.419 220.461 614.128 220.497 613.846 220.443C613.564 220.39 613.306 220.249 613.109 220.041C612.945 219.89 612.823 219.698 612.756 219.486C612.689 219.273 612.679 219.046 612.727 218.829C612.905 218.089 613.415 217.936 613.428 218.012C613.441 218.089 613.186 218.357 613.173 218.88C613.169 219.017 613.196 219.153 613.251 219.279C613.306 219.405 613.389 219.517 613.492 219.607C613.616 219.71 613.766 219.777 613.926 219.802C614.085 219.827 614.248 219.808 614.398 219.747C614.539 219.675 614.658 219.565 614.741 219.43C614.824 219.295 614.869 219.14 614.87 218.982C614.866 218.848 614.828 218.718 614.759 218.604C614.689 218.49 614.591 218.396 614.474 218.331C614.028 218.063 613.658 218.229 613.62 218.152Z" fill="#263238"/>
<path d="M699.861 170.426C699.861 170.426 720.095 196.873 722.557 204.068C725.019 211.263 723.118 221.623 718.998 226.572C714.877 231.522 711.56 229.507 711.56 229.507L699.861 170.426Z" fill="#4A538A"/>
<path d="M710.858 227.389C709.21 227.984 707.497 228.382 705.755 228.575C704.058 228.976 702.319 229.164 700.576 229.137C702.223 228.54 703.936 228.142 705.679 227.95C707.375 227.55 709.115 227.362 710.858 227.389Z" fill="#263238"/>
<path d="M714.686 246.87C714.914 247.314 715.098 247.78 715.234 248.26C715.54 249.179 716 250.48 716.599 252.088C718.17 256.277 719.985 260.37 722.034 264.348C724.097 268.314 726.363 272.172 728.821 275.906C729.765 277.348 730.543 278.458 731.092 279.287C731.404 279.68 731.669 280.108 731.883 280.563C731.51 280.227 731.176 279.85 730.888 279.44C730.288 278.687 729.446 277.577 728.451 276.161C725.865 272.496 723.529 268.66 721.46 264.68C719.39 260.685 717.625 256.539 716.178 252.279C715.63 250.646 715.221 249.307 714.992 248.375C714.824 247.889 714.721 247.383 714.686 246.87Z" fill="#263238"/>
<g opacity="0.3">
<path opacity="0.3" d="M716.089 250.008C719.304 255.724 722.595 261.49 727.469 265.917C729.313 267.317 730.983 268.931 732.444 270.727C733.72 272.628 734.32 275.281 733.069 277.233C732.883 277.597 732.59 277.895 732.23 278.089C731.87 278.283 731.46 278.362 731.054 278.317C730.521 278.113 730.071 277.736 729.778 277.246C723.676 269.387 719.117 260.444 716.344 250.889" fill="black"/>
</g>
<g opacity="0.3">
<path opacity="0.3" d="M713.41 229.405C716.178 227.414 717.148 223.638 716.74 220.245C716.331 216.851 714.775 213.738 713.384 210.638C709.181 201.368 705.887 191.712 703.548 181.806L701.571 174.47L711.573 226.777L713.41 229.405Z" fill="black"/>
</g>
<path d="M663.362 141.543C664.555 140.207 665.834 138.95 667.189 137.779C668.385 136.426 669.663 135.148 671.016 133.952C670.164 135.542 669.042 136.971 667.699 138.175C666.474 139.556 665.004 140.698 663.362 141.543Z" fill="#263238"/>
<path d="M661.32 146.085C661.32 146.199 660.147 146.557 658.361 147.437C653.673 149.763 649.896 153.589 647.631 158.306C646.764 160.105 646.356 161.304 646.356 161.279C646.352 160.98 646.399 160.682 646.496 160.399C646.693 159.619 646.949 158.856 647.261 158.115C649.37 153.159 653.289 149.194 658.22 147.029C658.955 146.706 659.715 146.442 660.491 146.238C660.757 146.141 661.037 146.089 661.32 146.085Z" fill="#263238"/>
<path d="M715.63 234.674C715.501 234.519 715.394 234.347 715.311 234.163L714.507 232.645C713.78 231.229 712.797 229.303 711.585 226.955C710.31 221.163 708.536 212.718 706.584 203.315C704.773 194.398 703.204 186.373 701.928 180.53L700.652 173.603C700.525 172.85 700.41 172.225 700.32 171.715C700.268 171.498 700.246 171.274 700.257 171.051C700.342 171.257 700.407 171.47 700.448 171.689C700.563 172.187 700.716 172.812 700.895 173.565C701.277 175.274 701.8 177.596 702.425 180.441C703.701 186.335 705.36 194.347 707.222 203.188C709.174 212.59 710.884 221.048 712.019 226.879C713.155 229.264 714.073 231.216 714.749 232.658L715.464 234.227C715.534 234.37 715.589 234.52 715.63 234.674Z" fill="#263238"/>
<path d="M648.435 213.521C648.273 212.895 648.17 212.254 648.129 211.608C647.989 210.255 647.797 208.482 647.568 206.352C647.108 201.925 646.522 195.788 645.922 189.027C645.322 182.265 644.812 176.116 644.468 171.664C644.315 169.533 644.2 167.76 644.098 166.407C644.039 165.762 644.039 165.113 644.098 164.468C644.243 165.098 644.341 165.738 644.391 166.382C644.531 167.734 644.723 169.508 644.965 171.638C645.412 176.065 645.998 182.189 646.598 188.963C647.198 195.737 647.708 201.874 648.052 206.313C648.206 208.444 648.32 210.217 648.422 211.582C648.472 212.228 648.476 212.876 648.435 213.521Z" fill="#263238"/>
<path d="M610.724 216.979C610.724 216.979 602.329 210.6 600.288 210.23C598.719 209.937 589.367 210.102 585.068 210.23C584.265 210.223 583.491 210.532 582.913 211.091C582.336 211.649 582.001 212.412 581.981 213.215C581.968 213.317 581.968 213.42 581.981 213.521C582.088 214.031 582.336 214.499 582.697 214.874C583.058 215.248 583.517 215.514 584.022 215.639C583.37 215.849 582.8 216.259 582.395 216.811C581.989 217.363 581.769 218.029 581.764 218.714C581.764 221.138 584.66 221.648 584.66 221.648L584.239 222.031C583.876 222.399 583.617 222.857 583.491 223.359C583.365 223.86 583.376 224.386 583.521 224.882C583.667 225.378 583.943 225.826 584.32 226.179C584.698 226.533 585.163 226.779 585.668 226.891L586.943 227.198C586.454 227.396 586.029 227.727 585.716 228.152C585.403 228.578 585.214 229.082 585.17 229.609C585.17 232.798 592.416 233.436 592.416 233.436C592.416 233.436 610.188 236.256 610.571 236.128C610.953 236 610.724 216.979 610.724 216.979Z" fill="#FFBE9D"/>
<path d="M586.714 206.403C586.79 207.462 587.046 209.707 588.832 210.715L598.744 210.332C598.744 210.332 591.37 207.781 590.312 206.505C589.901 205.982 589.425 205.515 588.895 205.114C588.676 204.966 588.418 204.883 588.153 204.876C587.888 204.868 587.626 204.935 587.398 205.07C587.17 205.205 586.984 205.402 586.863 205.637C586.742 205.873 586.69 206.139 586.714 206.403Z" fill="#FFBE9D"/>
<path d="M594.075 210.23C592.597 210.58 591.071 210.688 589.559 210.549C588.046 210.638 586.528 210.531 585.042 210.23C586.528 209.897 588.054 209.79 589.571 209.911C591.08 209.835 592.592 209.942 594.075 210.23Z" fill="#EB996E"/>
<path d="M591.855 215.767C590.596 216.172 589.266 216.307 587.951 216.162C586.642 216.211 585.337 215.981 584.124 215.486C585.417 215.346 586.722 215.346 588.015 215.486C589.301 215.435 590.59 215.529 591.855 215.767Z" fill="#EB996E"/>
<path d="M596.894 215.052C597.047 215.154 596.894 215.69 596.295 216.047C595.695 216.405 595.159 216.366 595.147 216.188C595.134 216.009 595.504 215.792 595.938 215.512C596.371 215.231 596.741 214.976 596.894 215.052Z" fill="#EB996E"/>
<path d="M592.94 222.044C590.105 222.376 587.237 222.281 584.43 221.763C585.837 221.483 587.278 221.418 588.704 221.572C590.131 221.518 591.559 221.677 592.94 222.044Z" fill="#EB996E"/>
<path d="M598.591 219.39C598.668 219.39 598.821 219.569 598.872 219.951C598.926 220.473 598.776 220.994 598.452 221.407C598.128 221.819 597.656 222.088 597.137 222.158C596.754 222.158 596.524 222.158 596.524 222.018C596.524 221.878 597.379 221.737 597.94 221.01C598.502 220.283 598.438 219.428 598.591 219.39Z" fill="#EB996E"/>
<path d="M594.445 228.18C593.169 228.336 591.877 228.285 590.617 228.027C589.306 227.981 588.012 227.713 586.79 227.236C588.066 227.08 589.358 227.131 590.617 227.389C591.928 227.442 593.221 227.709 594.445 228.18Z" fill="#EB996E"/>
<path d="M599.969 225.054C600.045 225.054 600.173 225.258 600.16 225.654C600.11 226.122 599.924 226.566 599.624 226.93C598.91 227.81 598.094 228.129 598.004 228.001C597.915 227.874 598.527 227.274 599.127 226.534C599.726 225.794 599.867 225.093 599.969 225.054Z" fill="#EB996E"/>
<path d="M639.99 145.676C639.99 145.676 635.907 159.365 637.03 158.587C638.153 157.809 640.589 155.653 640.589 155.653L639.99 145.676Z" fill="#EBEBEB"/>
<path d="M640.219 151.991L638 157.324C637.778 157.876 637.632 158.455 637.566 159.046C637.374 160.539 637.17 163.269 638.051 163.46C638.496 163.486 638.942 163.41 639.355 163.24C639.768 163.07 640.137 162.81 640.436 162.478L640.219 151.991Z" fill="#263238"/>
<path d="M709.366 152.833C709.366 152.833 687.563 144.324 675.481 151.838C663.4 159.353 661.205 171.345 654.01 171.345C639.977 171.345 640.436 161.445 640.436 161.445L637.451 162.351C637.451 164.379 634.21 178.935 648.933 180.709C663.655 182.482 669.932 162.363 683.225 162.351C691.542 162.491 699.648 164.981 706.61 169.533L716.165 163.499L709.366 152.833Z" fill="#263238"/>
<path d="M653.449 180.53C657.21 178.29 660.155 174.906 661.856 170.873C665.25 163.052 672.522 154.135 678.594 151.889C684.667 149.644 698.713 148.062 708.422 154.441L714.635 162.835L706.572 168.079C702.038 165.697 697.271 163.786 692.347 162.376C682.32 159.582 676.222 162.746 670.391 168.257C670.034 168.602 669.69 168.946 669.409 169.278C666.591 172.281 663.499 175.015 660.172 177.443C657.276 179.395 654.725 180.53 653.449 180.53Z" fill="#455A64"/>
<path d="M201.829 61.7183C188.893 63.7213 179.414 52.788 176.39 43.1815C173.596 34.2512 172.269 24.9509 168.353 16.3905C162.867 4.52589 148.349 -0.959893 135.323 0.137263C122.298 1.23442 109.157 7.79184 97.6245 13.9283L100.814 85.371C100.814 85.371 125.908 58.58 137.977 58.1462C158.108 57.3425 157.011 90.423 176.556 95.3092C176.556 95.3092 203.959 102.734 222.483 78.8136C234.233 63.6192 235.241 45.1717 235.241 45.1717C235.241 45.1717 226.234 57.9548 201.829 61.7183Z" fill="#4A538A"/>
<path d="M97.0632 2.14023C97.2418 2.14023 100.763 78.0226 104.922 171.625C109.081 265.228 112.321 341.136 112.143 341.149C111.964 341.161 108.456 265.279 104.284 171.651C100.112 78.0226 96.8846 2.15299 97.0632 2.14023Z" fill="#263238"/>
<g opacity="0.2">
<path opacity="0.2" d="M166.107 38.2316C168.299 45.7802 171.5 52.9983 175.625 59.6899C179.35 65.5201 185.001 70.4318 191.776 71.8479C193.016 72.0149 194.232 72.3275 195.399 72.7792C195.981 73.016 196.488 73.4051 196.867 73.9057C197.247 74.4064 197.484 75 197.555 75.6242C197.555 77.4995 195.68 78.7243 193.996 79.5535C191.656 80.837 189.155 81.7982 186.558 82.4112C184.006 82.896 181.889 83.1767 180.09 81.1355C178.35 79.4297 176.785 77.5534 175.42 75.5349C169.514 65.4691 166.592 51.0785 166.107 39.6987" fill="black"/>
</g>
<path d="M183.649 84.1208C183.649 84.1208 183.445 84.0314 183.075 83.789C182.54 83.4398 182.024 83.0607 181.531 82.6536C179.714 81.1503 178.109 79.408 176.76 77.474C174.762 74.6034 173.153 71.4803 171.976 68.1865C170.545 64.1684 169.365 60.0653 168.442 55.9009C166.69 48.3542 165.584 40.6717 165.138 32.9371C164.972 29.9774 164.946 27.5789 164.946 25.9204C164.946 25.1422 164.946 24.5171 164.946 24.0068C164.925 23.7862 164.925 23.564 164.946 23.3434C165.004 23.5597 165.03 23.7831 165.023 24.0068C165.023 24.5171 165.023 25.1422 165.1 25.9077C165.176 27.5662 165.265 29.9646 165.495 32.9116C166.075 40.6002 167.235 48.234 168.965 55.7478C169.901 59.8906 171.077 63.9756 172.486 67.9823C173.642 71.235 175.203 74.3295 177.13 77.1934C178.427 79.1219 179.956 80.8831 181.684 82.4367C182.922 83.5722 183.687 84.0825 183.649 84.1208Z" fill="#263238"/>
<path d="M19.0631 356.228L189.977 384.206V356.228H19.0631Z" fill="#E0E0E0"/>
<path d="M218.197 419.442L389.111 447.42V419.442H218.197Z" fill="#E0E0E0"/>
<path d="M415.953 479.901L586.867 507.878V479.901H415.953Z" fill="#E0E0E0"/>
<path d="M613.454 528.01L784.368 556V528.01H613.454Z" fill="#E0E0E0"/>
<path d="M189.977 335.268H19.0631V356.228H189.977V335.268Z" fill="#4A538A"/>
<g opacity="0.3">
<path opacity="0.3" d="M189.99 335.268H136.65V356.228H189.99V335.268Z" fill="black"/>
</g>
<path d="M389.111 398.482H218.197V419.442H389.111V398.482Z" fill="#4A538A"/>
<g opacity="0.3">
<path opacity="0.3" d="M389.111 398.482H335.771V419.442H389.111V398.482Z" fill="black"/>
</g>
<path d="M586.867 458.94H415.953V479.901H586.867V458.94Z" fill="#4A538A"/>
<g opacity="0.3">
<path opacity="0.3" d="M586.88 458.94H533.54V479.901H586.88V458.94Z" fill="black"/>
</g>
<path d="M784.623 507.062H613.709V528.023H784.623V507.062Z" fill="#4A538A"/>
<g opacity="0.3">
<path opacity="0.3" d="M784.636 507.062H731.296V528.023H784.636V507.062Z" fill="black"/>
</g>
<path d="M85.1954 263.051C78.5865 276.289 46.0938 332 46.0938 332L3.68794 263.051C-4.57293 240.436 1.48485 220.027 17.456 208.443C31.2243 199.066 52.1519 192.999 71.4272 208.443C73.0795 208.443 98.4129 231.61 85.1954 263.051Z" fill="#7481D6"/>
<circle cx="43.5" cy="244.5" r="28.5" fill="#4A538A"/>
<circle cx="43.5" cy="244.5" r="28.5" stroke="#4A538A"/>
<path d="M30.8889 240.64L27 246.24L43.6667 258L62 234.48L56.4444 230L42 248.48L30.8889 240.64Z" fill="#DDF8F3"/>
<defs>
<linearGradient id="paint0_linear" x1="582" y1="143" x2="582" y2="308.5" gradientUnits="userSpaceOnUse">
<stop stop-color="#7481D6"/>
<stop offset="1" stop-color="#434C7E"/>
</linearGradient>
</defs>
</svg>
