<svg width="94" height="107" viewBox="0 0 94 107" fill="none" xmlns="http://www.w3.org/2000/svg">
<path d="M21.0409 93.6251H1.55268V31.1179H21.0409V93.6251ZM11.2863 22.5913C5.0546 22.5913 0 17.4503 0 11.2435C4.46038e-08 8.2621 1.18909 5.40284 3.30568 3.29469C5.42227 1.18654 8.29298 0.00219727 11.2863 0.00219727C14.2796 0.00219727 17.1503 1.18654 19.2669 3.29469C21.3835 5.40284 22.5726 8.2621 22.5726 11.2435C22.5726 17.4503 17.5159 22.5913 11.2863 22.5913ZM93.979 93.6251H74.5328V63.197C74.5328 55.9452 74.3859 46.6454 64.4005 46.6454C54.2682 46.6454 52.7155 54.5241 52.7155 62.6745V93.6251H33.2483V31.1179H51.9392V39.6444H52.212C54.8138 34.7333 61.1692 29.5505 70.6511 29.5505C90.3743 29.5505 94 42.4866 94 59.289V93.6251H93.979Z" fill="#C4C4C4"/>
</svg>
