<svg width="64" height="64" viewBox="0 0 64 64" fill="none" xmlns="http://www.w3.org/2000/svg">
<path d="M42.6773 63.6914C38.1315 63.8451 33.5857 64.0951 29.0355 63.9625C25.8666 63.8707 22.6948 63.7577 19.5347 63.5228C14.6004 63.1568 10.8361 60.8539 8.63339 56.2347C7.84892 54.5901 7.48254 52.7782 6.83399 51.0703C4.25898 44.2868 2.31627 37.3045 0.426744 30.2951C-1.15401 24.4289 1.91147 19.1319 5.44233 16.7432C7.58743 15.2913 9.53605 13.5412 11.5866 11.9463C15.6936 8.75183 19.9203 5.73209 24.3065 2.94429C25.1206 2.4277 25.9095 1.86291 26.7589 1.4156C30.8054 -0.71704 34.8533 -0.400759 38.526 2.09937C43.286 5.339 48.0741 8.55453 52.5888 12.1586C55.3559 14.3681 58.1702 16.5248 60.7526 18.9557C62.5476 20.6455 63.3498 22.9438 63.793 25.3431C64.1801 27.4426 64.0146 29.5119 63.3779 31.5723C62.3363 34.9384 61.4263 38.3483 60.401 41.7189C58.835 46.8653 57.1257 51.9694 54.9422 56.8748C52.9907 61.2591 49.3239 63.2577 44.7426 63.6824C44.0601 63.7457 43.3658 63.6914 42.6773 63.6914ZM12.7419 44.0654C12.7419 45.2176 12.7404 46.3698 12.7419 47.5219C12.7448 48.8352 12.7463 48.8337 14.0021 48.9181C14.1971 48.9316 14.3921 48.9678 14.5856 48.9964C17.6659 49.4693 20.6058 50.4769 23.5295 51.5161C28.4254 53.2572 33.2504 55.203 38.2143 56.7483C39.7684 57.2333 39.764 57.2423 40.4628 55.7934C42.277 52.0342 44.8357 48.7855 47.3206 45.4902C50.1054 41.7957 52.998 38.1856 55.5642 34.3224C56.1448 33.4474 56.1389 33.4474 55.3913 32.7787C55.1505 32.5648 54.9216 32.3374 54.694 32.1085C51.3272 28.7197 48.7994 24.6774 46.1683 20.7193C43.9626 17.4014 41.7909 14.0608 39.405 10.8709C39.0903 10.4492 38.8451 10.3498 38.3827 10.6646C37.1919 11.4749 35.8712 12.0336 34.5416 12.5623C30.6414 14.1151 26.5935 15.1904 22.5795 16.3727C19.3914 17.311 16.1989 18.2373 13.0787 19.4C12.6311 19.5672 12.2041 19.6922 12.3799 20.385C12.9088 22.4589 12.9797 24.59 13.0314 26.7181C13.1674 32.5046 12.7773 38.282 12.7419 44.0654Z" fill="#4A538A"/>
<path d="M23.6854 30.6007C24.9186 30.2626 25.9375 29.9749 27.0411 30.2702C30.2897 31.1331 31.6499 34.9787 29.6345 37.6938C27.781 40.1869 23.5658 40.3913 21.4682 38.1076C20.9476 37.5399 20.7383 37.0756 21.3636 36.3993C22.0063 35.7029 22.3451 36.1924 22.7711 36.5962C23.4662 37.2573 24.3057 37.5601 25.2524 37.6105C26.4905 37.6736 27.4546 37.2472 27.9728 36.0536C28.4611 34.9282 28.1995 33.5126 27.3525 32.8112C26.351 31.981 25.2549 31.9229 24.0965 32.4856C23.511 32.7708 23.1199 33.389 22.3676 33.4067C21.4832 33.4294 21.0198 33.2048 21.239 32.1753C21.665 30.1667 22.0537 28.1505 22.4199 26.1319C22.5743 25.2891 22.9779 24.9156 23.8523 24.9409C25.4268 24.9863 27.0012 24.9636 28.5757 24.951C29.2732 24.9459 29.8163 25.0595 29.7989 25.9552C29.7814 26.8384 29.3056 27.1034 28.5134 27.0857C27.5194 27.0605 26.5204 27.1311 25.5314 27.0706C24.6171 27.0176 24.1338 27.3279 24.0616 28.2969C24.0093 28.9984 23.8399 29.6923 23.6854 30.6007Z" fill="#4A538A"/>
<path d="M36.3354 23.4952L36.2209 40.3019H37.4754L37.5701 23.4952H36.3354Z" fill="#4A538A"/>
<path d="M38.5961 23.4952L38.4821 40.3019H39.736L39.8313 23.4952H38.5961Z" fill="#4A538A"/>
<path d="M42.7759 29.0456C42.8423 28.9682 42.8666 28.8465 42.7759 28.4267C42.6376 27.7872 42.4339 27.3633 42.4339 27.3633C42.1624 26.798 41.829 26.1044 41.0852 25.6418C40.9636 25.5665 40.8648 25.5206 40.6673 25.4293C40.4114 25.3107 39.6494 24.9765 38.5773 24.8491C37.9455 24.7738 37.4556 24.8006 37.3046 24.8104C36.5746 24.8578 35.5476 24.9244 34.588 25.6036C34.2957 25.8104 33.4916 26.3793 33.1441 27.4798C33.1197 27.5577 32.641 29.1591 33.562 30.4582C34.0586 31.1586 34.7142 31.4216 35.7852 31.8507C36.8588 32.2813 38.0428 32.5113 38.4258 32.5856C39.1331 32.7228 39.6307 32.7738 40.2878 33.1271C40.6961 33.3468 41.068 33.5464 41.3137 33.9781C41.7054 34.6661 41.5772 35.5934 41.1425 36.2019C40.8005 36.681 40.346 36.8543 39.7745 37.0725C39.5866 37.1442 38.7334 37.4557 37.5326 37.3623C36.6744 37.2958 35.9671 37.2411 35.3667 36.7434C34.3595 35.9085 34.089 34.188 34.0748 34.1519C34.0748 34.1519 33.6968 34.1313 33.3528 34.1457C33.3528 34.1457 33.1912 34.1524 32.4312 34.2519C32.4474 34.583 32.5016 35.0436 32.6688 35.564C32.7737 35.8915 33.0833 36.8213 33.904 37.5949C34.8368 38.4742 35.9144 38.6687 37.0392 38.8714C37.8179 39.0116 38.3544 38.9946 38.5211 38.9874C39.4006 38.9482 40.0623 38.7254 40.345 38.6202C41.0057 38.3732 41.794 38.0782 42.3969 37.2855C42.9102 36.6109 43.0302 35.9157 43.0809 35.6032C43.1366 35.2586 43.3175 34.0307 42.5869 32.9342C42.361 32.5949 42.1259 32.386 41.979 32.2576C41.4363 31.7821 40.8674 31.5541 39.7558 31.2519C38.6467 30.9502 38.401 30.9559 37.0767 30.6134C35.7568 30.272 35.4113 30.1142 35.12 29.7625C35.0313 29.6557 34.5414 29.041 34.664 28.2153C34.7587 27.5789 35.1615 27.189 35.2912 27.0745C35.5572 26.8388 35.8105 26.7542 36.2412 26.6103C36.3962 26.5587 36.8694 26.4097 37.5139 26.3782C38.0378 26.3524 38.4375 26.4154 38.5586 26.436C38.9948 26.5103 39.6079 26.615 40.2113 27.0745C40.5335 27.32 40.8887 27.5902 41.0528 28.0688C41.2165 28.5469 41.0786 28.9079 41.3325 29.0858C41.3973 29.1312 41.4379 29.1297 41.9785 29.1312C42.6006 29.1312 42.7009 29.1333 42.7759 29.0456Z" fill="#4A538A"/>
</svg>
