<svg width="347" height="90" viewBox="0 0 347 90" fill="none" xmlns="http://www.w3.org/2000/svg">
<g clip-path="url(#clip0)">
<path d="M127.073 41.3677C127.073 18.5786 98.6239 -6.86646e-05 63.5367 -6.86646e-05C28.4447 -6.86646e-05 0.00480383 18.5786 0.00480383 41.3677C0.00480383 41.9562 0 43.5878 0 43.7935C0 67.9654 24.859 87.5488 63.5271 87.5488C102.44 87.5488 127.073 67.975 127.073 43.7935V41.3677Z" fill="#28316B"/>
<path d="M124.638 41.3492C124.638 62.8321 97.2935 80.2529 63.5473 80.2529C29.8107 80.2529 2.46191 62.8321 2.46191 41.3492C2.46191 19.8615 29.8107 2.44073 63.5473 2.44073C97.2935 2.44073 124.638 19.8615 124.638 41.3492Z" fill="#50B4E9"/>
<path d="M43.2654 29.0743C43.2317 29.1365 42.6213 29.768 43.0154 30.2656C43.9815 31.4953 46.9615 32.1938 49.9752 31.524C51.768 31.1221 54.0607 29.3039 56.2861 27.548C58.6989 25.6389 61.0974 23.7251 63.5006 22.9691C66.048 22.1605 67.6774 22.505 68.7589 22.8256C69.9413 23.1844 71.3351 23.9547 73.5509 25.615C77.7325 28.7441 94.5408 43.3468 97.4391 45.873C99.7846 44.8204 110.176 40.3612 124.302 37.2703C123.077 29.7728 118.491 22.9117 111.546 17.2945C101.866 21.3423 90.0323 23.4571 78.4631 17.8256C78.4055 17.8113 72.1426 14.8544 65.9615 15.0027C56.7812 15.2132 52.8014 19.1701 48.5909 23.3566L43.2654 29.0743Z" fill="white"/>
<path d="M96.761 47.4606C96.5639 47.2883 77.0016 30.2408 72.5652 26.925C70.0034 25.0112 68.5759 24.5231 67.0762 24.3318C66.2928 24.2361 65.221 24.3748 64.4615 24.5853C62.4044 25.1404 59.7079 26.9346 57.3143 28.8197C54.8342 30.791 52.4982 32.6379 50.3305 33.1259C47.562 33.7431 44.1782 33.0111 42.6306 31.9728C42.0057 31.5565 41.5683 31.0685 41.3568 30.5805C40.7849 29.2599 41.8375 28.2121 42.0057 28.0303L47.4082 22.2217C48.033 21.5997 48.6675 20.973 49.3163 20.3557C47.5764 20.5854 45.9662 21.0304 44.3945 21.461C42.4383 22.0112 40.559 22.528 38.6508 22.528C37.8577 22.528 33.5992 21.839 32.7917 21.6189C27.9083 20.2792 23.6162 18.9921 17.214 16.0113C9.53803 21.7002 4.40472 28.8149 2.92433 36.6474C4.02501 36.9392 5.7986 37.4607 6.5436 37.6234C23.919 41.4703 29.3263 45.4319 30.3116 46.2597C31.3738 45.0826 32.9023 44.3362 34.6134 44.3362C36.5408 44.3458 38.2711 45.3027 39.3237 46.786C40.3186 46.0013 41.6885 45.341 43.4621 45.341C44.2648 45.341 45.1011 45.4845 45.947 45.7716C47.9081 46.4367 48.9174 47.7381 49.4413 48.9199C50.0998 48.6185 50.9073 48.3984 51.859 48.4032C52.7962 48.4032 53.7719 48.6137 54.7477 49.0347C57.9488 50.4031 58.4486 53.5418 58.1603 55.9007C58.391 55.8719 58.6121 55.8624 58.8524 55.8624C62.6447 55.8672 65.7401 58.9341 65.7352 62.7187C65.7352 63.891 65.4324 64.9866 64.9133 65.9579C65.9467 66.5321 68.5807 67.8431 70.8878 67.5512C72.7383 67.3167 73.44 66.69 73.6899 66.3359C73.863 66.0967 74.0456 65.8096 73.8726 65.6039L68.9796 60.1829C68.9796 60.1829 68.1673 59.4269 68.4317 59.1303C68.7104 58.8336 69.2103 59.2642 69.566 59.5561C72.0509 61.6326 75.103 64.757 75.103 64.757C75.1511 64.7953 75.3578 65.1876 76.4777 65.3885C77.4486 65.5608 79.1645 65.4651 80.3565 64.4938C80.6545 64.2498 80.9573 63.9388 81.2073 63.6278C81.188 63.6422 81.1688 63.6613 81.1496 63.6709C82.4041 62.0728 81.0102 60.4556 81.0102 60.4556L75.2905 54.0634C75.2905 54.0634 74.4686 53.3074 74.7474 53.0012C74.9973 52.7428 75.526 53.1399 75.8817 53.4366C77.6937 54.9389 80.2556 57.5035 82.7069 59.8958C83.1875 60.2403 85.3456 61.5704 88.2007 59.7044C89.931 58.5705 90.2771 57.1829 90.2338 56.1303C90.1088 54.7428 89.0226 53.7524 89.0226 53.7524L81.2073 45.9343C81.2073 45.9343 80.3806 45.231 80.6689 44.8769C80.9093 44.5755 81.4428 45.0061 81.7985 45.3027C84.2882 47.3745 91.0317 53.5275 91.0317 53.5275C91.123 53.5945 93.4589 55.2452 96.3284 53.4174C97.3618 52.7619 98.0203 51.7763 98.0732 50.6328C98.1741 48.6376 96.761 47.4606 96.761 47.4606Z" fill="white"/>
<path d="M58.8491 57.3758C57.6379 57.3615 56.3161 58.0792 56.1383 57.9739C56.0421 57.9117 56.2152 57.4284 56.3305 57.1462C56.4411 56.8734 58.0368 52.0936 54.1484 50.4286C51.1684 49.1559 49.3515 50.5865 48.7267 51.2372C48.5585 51.4046 48.4864 51.3903 48.4671 51.175C48.4095 50.3137 48.025 47.9836 45.4535 47.2037C41.7765 46.0889 39.4166 48.6391 38.8158 49.5578C38.5514 47.4765 36.7826 45.8593 34.6149 45.8545C32.2597 45.8545 30.3468 47.754 30.3468 50.0984C30.3468 52.4381 32.2549 54.3376 34.6101 54.3376C35.754 54.3424 36.7922 53.8878 37.5565 53.1558C37.5805 53.1797 37.5901 53.218 37.5757 53.2993C37.3979 54.3472 37.071 58.1605 41.0844 59.7155C42.6946 60.3375 44.0596 59.8734 45.1939 59.0791C45.5304 58.8447 45.5833 58.9452 45.5352 59.261C45.391 60.2418 45.5737 62.3422 48.5344 63.5336C50.7839 64.4475 52.1153 63.5145 52.9852 62.7107C53.3649 62.3662 53.4707 62.4284 53.4947 62.9547C53.5956 65.7967 55.9652 68.0455 58.8443 68.0503C61.8051 68.0503 64.2083 65.6676 64.2083 62.7202C64.2083 59.7681 61.8099 57.4093 58.8491 57.3758Z" fill="white"/>
<path d="M58.8492 67.6689C56.1624 67.6689 53.9803 65.5876 53.8841 62.9465C53.8745 62.7168 53.8505 62.114 53.341 62.114C53.1295 62.114 52.9421 62.2384 52.7354 62.425C52.1394 62.9752 51.3896 63.5254 50.2937 63.5254C49.7938 63.5254 49.2555 63.4106 48.6835 63.1809C45.8477 62.0374 45.8093 60.0948 45.9246 59.315C45.9535 59.1092 45.9631 58.8939 45.8237 58.7264L45.6459 58.5733H45.4728C45.3286 58.5733 45.1748 58.626 44.9778 58.7695C44.1558 59.3437 43.3676 59.6164 42.5697 59.6164C42.1275 59.6164 41.6805 59.535 41.2239 59.358C37.4941 57.9131 37.7873 54.4059 37.9699 53.3485C37.994 53.1332 37.9411 52.9706 37.8065 52.8557L37.5421 52.6356L37.297 52.8749C36.5664 53.5782 35.6148 53.9562 34.615 53.9562C32.4809 53.9562 30.7362 52.2242 30.7362 50.095C30.7362 47.9658 32.4857 46.2386 34.6198 46.2386C36.552 46.2386 38.2006 47.6836 38.4458 49.6118L38.5803 50.6452L39.1475 49.7696C39.2148 49.6644 40.7817 47.3056 43.6656 47.3056C44.2087 47.3056 44.7759 47.4013 45.343 47.5735C47.6453 48.2673 48.0299 50.339 48.0923 51.2098C48.1356 51.7122 48.4913 51.7361 48.5634 51.7361C48.7556 51.7361 48.9094 51.6117 49.0104 51.5017C49.443 51.0471 50.385 50.3007 51.8654 50.3007C52.5431 50.3055 53.2593 50.4586 53.9995 50.7792C57.6524 52.339 55.9942 56.9609 55.975 57.004C55.6625 57.7695 55.6529 58.1092 55.9461 58.3006L56.0903 58.3724H56.196C56.3595 58.3724 56.5613 58.3006 56.9026 58.1858C57.3977 58.0135 58.1475 57.76 58.8492 57.76H58.854C61.5985 57.7934 63.8335 60.0135 63.8335 62.7216C63.8287 65.4488 61.5937 67.6689 58.8492 67.6689ZM97.5173 45.4252C91.4947 40.1861 77.5656 28.1288 73.7877 25.3107C71.6344 23.6983 70.1636 22.8418 68.8755 22.4638C68.2939 22.2916 67.4912 22.0906 66.4579 22.0906C65.5014 22.0906 64.4728 22.2629 63.3913 22.6026C60.9496 23.3681 58.5272 25.2916 56.172 27.148L56.0567 27.2437C53.8649 28.9757 51.6059 30.7699 49.8948 31.1479C49.145 31.3154 48.3759 31.4015 47.6117 31.4015C45.6939 31.4015 43.9732 30.8513 43.3291 30.0283C43.2186 29.8944 43.2907 29.679 43.5358 29.3585L43.5695 29.3154L48.871 23.6265C53.0238 19.4974 56.9459 15.5884 65.9772 15.3826C66.1262 15.3778 66.28 15.373 66.429 15.373C72.0478 15.3826 77.6665 17.885 78.2962 18.172C83.5689 20.7366 89.005 22.038 94.4748 22.0428C100.175 22.0428 106.054 20.6361 112.235 17.8036C111.543 17.2247 110.822 16.6649 110.086 16.1099C104.655 18.4543 99.4831 19.6409 94.4892 19.6409C89.3895 19.6314 84.2947 18.4113 79.3536 16.0094C79.0892 15.8898 72.8889 12.9712 66.429 12.9712C66.2608 12.9712 66.0926 12.9712 65.9243 12.976C58.3397 13.153 54.0668 15.8372 51.1925 18.1816C48.3952 18.2534 45.9871 18.9232 43.8434 19.5213C41.9257 20.0476 40.277 20.5069 38.6669 20.5069C37.9988 20.5069 36.8068 20.4495 36.701 20.4447C34.8457 20.3873 25.5068 18.1098 18.076 15.3061C17.3165 15.8419 16.586 16.3922 15.8794 16.9568C23.6418 20.1194 33.0866 22.5739 36.0666 22.7605C36.8933 22.8227 37.7777 22.9136 38.6621 22.9136C40.6327 22.9136 42.5986 22.3634 44.5067 21.8371C45.6314 21.5165 46.8715 21.1768 48.1741 20.9232C47.828 21.2677 47.4819 21.6122 47.1311 21.9615L41.743 27.7604C41.3248 28.1862 40.3972 29.325 41.0076 30.7269C41.2479 31.2915 41.7334 31.8321 42.4255 32.2914C43.7088 33.1527 46.0063 33.7316 48.1404 33.7316C48.9479 33.7364 49.7217 33.6551 50.4235 33.4924C52.6825 32.9948 55.0473 31.1144 57.5563 29.1288C59.5558 27.5451 62.3964 25.5404 64.5689 24.9471C65.1793 24.7844 65.9291 24.6839 66.53 24.6839C66.7078 24.6887 66.876 24.6887 67.0298 24.7078C68.467 24.8944 69.8608 25.3777 72.341 27.2341C76.7629 30.5403 96.33 47.5831 96.5223 47.7505C96.5367 47.7601 97.7816 48.8271 97.6951 50.6165C97.647 51.6069 97.0943 52.4873 96.133 53.0997C95.2967 53.626 94.4315 53.894 93.5663 53.894C92.2542 53.894 91.3554 53.2816 91.2977 53.2385C91.2208 53.1811 84.5206 47.0616 82.05 45.009C81.6607 44.6836 81.281 44.3917 80.8965 44.3917C80.685 44.3917 80.5024 44.4779 80.3774 44.631C79.9881 45.1094 80.4255 45.7697 80.9397 46.2051L88.7743 54.0327C88.7839 54.0423 89.75 54.9466 89.8509 56.1523C89.9134 57.449 89.2886 58.5351 87.9908 59.3819C87.068 59.9896 86.1355 60.2958 85.2175 60.2958C84.0111 60.2958 83.1748 59.7504 82.9825 59.6164L81.8626 58.5207C79.8054 56.5064 77.6858 54.4251 76.1381 53.138C75.7584 52.8222 75.3546 52.5352 74.9701 52.5352C74.7779 52.5352 74.6048 52.6117 74.475 52.7457C74.2972 52.9418 74.1722 53.2911 74.6144 53.8748C74.7971 54.1189 75.0086 54.315 75.0086 54.315L80.7283 60.7025C80.7763 60.7647 81.901 62.0996 80.8532 63.4297L80.6514 63.6881C80.4783 63.8747 80.2957 64.0422 80.1226 64.1953C79.1469 64.9943 77.8444 65.0756 77.3301 65.0756C77.0513 65.0756 76.7822 65.0517 76.5562 65.0086C75.9891 64.913 75.6094 64.7551 75.4315 64.5398L75.3642 64.4632C75.047 64.1474 72.1679 61.2144 69.7839 59.2384C69.4715 58.98 69.0774 58.6451 68.6736 58.6451C68.4718 58.6451 68.2939 58.7264 68.1593 58.8748C67.6835 59.3915 68.3901 60.1618 68.6929 60.4393L73.5714 65.7885C73.5666 65.8364 73.4993 65.9512 73.3792 66.1187C73.2061 66.3627 72.6149 66.9512 70.851 67.1713C70.6395 67.1952 70.4184 67.2048 70.2021 67.2048C68.3756 67.2048 66.4338 66.3244 65.4293 65.7933C65.8907 64.8364 66.1262 63.7838 66.1262 62.7216C66.1262 58.7264 62.8674 55.4777 58.854 55.4777C58.7675 55.4777 58.681 55.4777 58.5897 55.4825C58.7291 53.6595 58.4695 50.205 54.9079 48.6883C53.8841 48.2434 52.8604 48.0233 51.8654 48.0233C51.0916 48.0233 50.3418 48.1524 49.6352 48.4252C48.9046 46.9946 47.679 45.9563 46.0784 45.4156C45.194 45.1094 44.3193 44.9563 43.4685 44.9563C41.9833 44.9563 40.6231 45.3869 39.4071 46.2482C38.2391 44.808 36.4751 43.9516 34.6198 43.9516C33 43.9516 31.4379 44.5975 30.2796 45.741C28.7655 44.5831 22.743 40.7794 6.63657 37.1383C5.85792 36.966 4.06991 36.4541 2.96923 36.1335C2.78659 36.9995 2.65201 37.8751 2.55588 38.7602C2.55588 38.7602 5.52627 39.4684 6.11266 39.6023C22.5652 43.2434 28.0061 47.0233 28.9242 47.7362C28.6117 48.4826 28.4531 49.2864 28.4483 50.095C28.4483 53.4825 31.212 56.2337 34.615 56.2384C34.9947 56.2384 35.3696 56.205 35.7445 56.138C36.2588 58.626 37.893 60.5159 40.3972 61.4824C41.123 61.7647 41.868 61.9082 42.5937 61.9082C43.0648 61.9082 43.531 61.8508 43.9972 61.736C44.4587 62.8986 45.5017 64.3579 47.8232 65.2957C48.6403 65.6211 49.4526 65.7885 50.2456 65.7885C50.8945 65.7885 51.529 65.6785 52.1298 65.4584C53.2449 68.1617 55.8932 69.9512 58.8492 69.9512C60.8055 69.9559 62.6848 69.1617 64.0594 67.755C65.2322 68.4009 67.7123 69.5732 70.2117 69.578C70.5386 69.578 70.8414 69.5636 71.149 69.5253C73.6339 69.2095 74.7875 68.243 75.321 67.4919C75.4171 67.3579 75.5036 67.2144 75.5757 67.0756C76.1669 67.2431 76.8062 67.377 77.5512 67.377C78.9066 67.377 80.2092 66.9225 81.5309 65.9656C82.8191 65.0326 83.7419 63.7024 83.8717 62.5685C83.8765 62.5541 83.8813 62.535 83.8813 62.5159C84.3187 62.6068 84.7705 62.6498 85.2079 62.6498C86.6114 62.6498 87.986 62.2192 89.2982 61.3628C91.8312 59.7073 92.2734 57.5494 92.2349 56.1332C92.6771 56.2193 93.1289 56.2719 93.5807 56.2719C94.8929 56.2719 96.1811 55.8796 97.4067 55.0997C98.9832 54.0997 99.9253 52.5686 100.069 50.7888C100.17 49.5783 99.8676 48.3582 99.2235 47.3056C103.472 45.4826 113.177 41.9612 124.611 39.3966C124.539 38.5114 124.414 37.6406 124.251 36.7746C110.423 39.832 100.103 44.2721 97.5173 45.4252Z" fill="#28316B"/>
<path d="M337.882 31.4201C336.767 32.889 335.181 33.6258 333.095 33.6258C331.019 33.6258 329.418 32.889 328.298 31.4201C327.174 29.9512 326.616 27.8604 326.616 25.1475C326.616 22.4394 327.174 20.3533 328.298 18.894C329.418 17.4299 331.019 16.6978 333.095 16.6978C335.181 16.6978 336.767 17.4299 337.882 18.894C338.988 20.3533 339.55 22.4394 339.55 25.1475C339.55 27.8604 338.988 29.9512 337.882 31.4201ZM343.564 15.0089C341.266 12.1525 337.786 10.7219 333.119 10.7219C328.452 10.7219 324.967 12.1525 322.675 15.0089C320.377 17.8701 319.233 21.248 319.233 25.1475C319.233 29.1187 320.377 32.511 322.675 35.3291C324.967 38.1425 328.452 39.554 333.119 39.554C337.786 39.554 341.266 38.1425 343.564 35.3291C345.856 32.511 347 29.1187 347 25.1475C347 21.248 345.856 17.8701 343.564 15.0089Z" fill="#28316B"/>
<path d="M281.341 28.0789C281.293 30.4521 280.61 32.0884 279.298 32.9831C277.991 33.8826 276.553 34.3324 275.001 34.3324C274.016 34.3324 273.184 34.0549 272.497 33.519C271.809 32.9736 271.468 32.1028 271.468 30.8875C271.468 29.5334 272.03 28.5287 273.15 27.8779C273.818 27.5 274.905 27.1746 276.428 26.9162L278.053 26.61C278.856 26.4569 279.495 26.2942 279.961 26.122C280.432 25.9545 280.884 25.7297 281.341 25.4378V28.0789ZM284.955 12.6198C282.634 11.4428 279.971 10.8543 276.976 10.8543C272.367 10.8543 269.118 12.0457 267.224 14.4332C266.032 15.9643 265.369 17.9164 265.215 20.2895H272.093C272.261 19.2369 272.602 18.4092 273.107 17.8015C273.818 16.969 275.025 16.5528 276.731 16.5528C278.25 16.5528 279.408 16.7633 280.197 17.1939C280.975 17.6102 281.369 18.3805 281.369 19.4905C281.369 20.4044 280.855 21.0694 279.836 21.5048C279.259 21.7584 278.313 21.9642 276.986 22.1316L274.544 22.4235C271.776 22.7775 269.671 23.3613 268.248 24.1747C265.643 25.6675 264.345 28.0789 264.345 31.4138C264.345 33.9831 265.148 35.9687 266.772 37.3754C268.387 38.7773 270.435 39.3658 272.92 39.4806C288.473 40.1744 288.3 31.3229 288.445 29.4808V19.2896C288.445 16.0217 287.277 13.7968 284.955 12.6198Z" fill="#28316B"/>
<path d="M249.484 16.9213C251.262 16.9213 252.569 17.4667 253.41 18.5624C253.987 19.3662 254.353 20.2801 254.492 21.2896H262.168C261.745 17.4332 260.394 14.749 258.102 13.2275C255.804 11.706 252.867 10.9405 249.277 10.9405C245.047 10.9405 241.736 12.2371 239.332 14.816C236.929 17.3997 235.727 21.0073 235.727 25.6436C235.727 29.7536 236.814 33.1028 238.986 35.6865C241.164 38.2654 244.557 39.5525 249.166 39.5525C253.785 39.5525 257.265 38.0071 259.611 34.9162C261.086 32.9928 261.908 30.9641 262.081 28.8062H254.434C254.28 30.2321 253.833 31.3899 253.093 32.2847C252.358 33.1698 251.113 33.6244 249.354 33.6244C246.878 33.6244 245.187 32.5 244.297 30.2464C243.802 29.0455 243.557 27.4522 243.557 25.4714C243.557 23.3948 243.802 21.7298 244.297 20.4667C245.225 18.1078 246.96 16.9213 249.484 16.9213Z" fill="#28316B"/>
<path d="M233.67 10.9406C217.91 10.9406 218.837 24.8351 218.837 24.8351V38.9497H225.99V25.7107C225.99 23.5432 226.273 21.9356 226.811 20.8878C227.797 19.0361 229.715 18.1079 232.574 18.1079C232.786 18.1079 233.074 18.1223 233.42 18.1414C233.771 18.1558 234.17 18.1893 234.622 18.2371V10.998C234.305 10.9741 234.098 10.9645 234.007 10.9549C233.92 10.9501 233.805 10.9406 233.67 10.9406Z" fill="#28316B"/>
<path d="M197.781 18.3136C198.786 17.2849 200.199 16.7729 202.026 16.7729C203.698 16.7729 205.102 17.2514 206.241 18.2275C207.366 19.2035 208 20.6246 208.125 22.5001H195.888C196.142 20.7394 196.782 19.3471 197.781 18.3136ZM207.394 31.5718C207.092 31.9976 206.774 32.366 206.419 32.6483C205.405 33.476 204.035 33.7296 202.42 33.7296C200.886 33.7296 199.69 33.5 198.613 32.8205C196.83 31.7297 195.82 29.8828 195.71 27.1699H215.508C215.532 24.8302 215.46 23.0408 215.267 21.8016C214.941 19.682 214.215 17.816 213.104 16.2084C211.869 14.3854 210.298 13.0505 208.409 12.2036C206.51 11.3615 204.386 10.9405 202.026 10.9405C198.041 10.9405 194.801 12.1893 192.302 14.6869C189.812 17.1892 188.558 20.7825 188.558 25.4666C188.558 30.4665 189.942 34.0789 192.706 36.2942C195.47 38.5142 198.666 39.6243 202.28 39.6243C206.659 39.6243 210.067 38.3085 212.499 35.677C213.816 34.2942 214.633 32.9258 214.984 31.5718H207.394Z" fill="#28316B"/>
<path d="M185.685 38.9424H179.153V22.5646C179.153 21.0718 178.654 17.5121 174.347 17.5121C171.473 17.5121 169.391 19.5743 169.391 22.5646V38.9424H162.855V22.5646C162.855 21.0718 162.408 17.5121 158.101 17.5121C155.174 17.5121 153.141 19.5743 153.141 22.5646V38.9424H146.604V22.7225C146.604 15.9571 151.117 10.8471 158.101 10.8471C161.567 10.8471 164.388 12.2969 166.224 14.6174C168.156 12.2969 171.026 10.8471 174.347 10.8471C181.48 10.8471 185.685 15.7466 185.685 22.7225V38.9424Z" fill="#28316B"/>
<path d="M308.527 31.4762C307.484 32.969 305.946 33.7106 303.942 33.7106C301.928 33.7106 300.429 32.9594 299.438 31.4666C298.453 29.969 297.963 27.7872 297.963 25.2896C297.963 22.9691 298.443 21.0313 299.414 19.4668C300.39 17.907 301.909 17.1223 303.99 17.1223C305.355 17.1223 306.547 17.5529 307.581 18.4142C309.253 19.8304 310.099 22.3902 310.099 25.6963C310.099 28.0599 309.57 29.9881 308.527 31.4762ZM317.102 2.39048C317.102 2.39048 309.902 1.62494 309.902 7.38561L309.892 15.0171C309.095 13.7348 308.056 12.7396 306.783 12.0267C305.504 11.3042 304.043 10.9406 302.394 10.9406C298.814 10.9406 295.973 12.2659 293.834 14.907C291.695 17.5625 290.628 21.3758 290.628 25.993C290.628 29.9929 291.714 33.28 293.882 35.8349C296.055 38.3851 300.304 39.5095 304.081 39.5095C317.251 39.5095 317.097 28.2657 317.097 28.2657L317.102 2.39048Z" fill="#28316B"/>
<path d="M165.737 64.8703C165.737 62.1814 165.213 60.124 164.155 58.6743C163.103 57.2293 161.598 56.5021 159.633 56.5021C157.744 56.5021 156.268 57.2293 155.215 58.6743C154.235 59.9853 153.749 62.0522 153.749 64.8703C153.749 67.4971 154.268 69.4492 155.326 70.7554C156.374 72.2099 157.883 72.9324 159.844 72.9324C161.666 72.9324 163.103 72.2099 164.155 70.7554C165.213 69.3153 165.737 67.3583 165.737 64.8703ZM153.749 84.1332C153.749 85.138 153.365 85.9992 152.601 86.6978C151.918 87.3293 150.995 87.6499 150.058 87.6499H146.597V62.9039C146.597 58.0905 148.227 55.081 150.909 53.0428C152.846 51.5739 155.821 50.1768 161.714 50.4495C164.751 50.5883 167.679 51.904 169.611 54.2389C171.995 57.1336 172.99 60.3537 172.99 64.5641C172.99 68.9038 171.937 72.4013 169.837 75.0999C167.736 77.717 165.035 79.0232 161.738 79.0232C159.983 79.0232 158.44 78.7122 157.114 78.095C155.706 77.406 154.595 76.3343 153.749 74.8893V84.1332Z" fill="#50B4E9"/>
<path d="M208.605 64.8751C208.605 69.6166 209.984 72.2482 212.738 72.7697C215.492 73.2769 217.521 72.6453 218.833 70.8558C219.453 70.1094 219.9 68.9133 220.174 67.3009C220.448 65.6837 220.467 64.0856 220.227 62.5019C219.987 60.9134 219.419 59.5067 218.521 58.2675C217.627 57.0283 216.314 56.4063 214.598 56.4063C212.258 56.4063 210.676 57.2723 209.85 58.99C209.013 60.7077 208.605 62.6694 208.605 64.8751ZM220.381 76.7361V74.9898C219.141 76.9227 217.473 78.1189 215.372 78.6021C213.272 79.0806 211.186 78.9131 209.124 78.0806C207.057 77.2577 205.288 75.7314 203.803 73.497C202.323 71.2482 201.587 68.3104 201.587 64.6646C201.587 60.4015 202.568 56.9422 204.524 54.2963C206.49 51.6456 209.643 50.4399 213.978 50.3203C218.256 50.2102 220.736 51.1719 223.168 53.0044C225.831 55.014 227.403 58.0953 227.403 62.9086V77.4682C227.413 82.0997 224.168 90.6881 213.978 89.956C207.668 89.4967 204.159 86.9178 202.207 81.0806H209.744C210.297 82.0375 211.138 82.7791 212.277 83.2959C213.411 83.8174 214.55 83.9466 215.68 83.7121C216.814 83.4681 217.848 82.7935 218.785 81.6978C219.713 80.5925 220.241 78.9419 220.381 76.7361Z" fill="#50B4E9"/>
<path d="M191.853 67.744C191.81 70.1219 191.127 71.7535 189.815 72.6482C188.508 73.5477 187.071 73.9974 185.518 73.9974C184.533 73.9974 183.696 73.7199 183.009 73.1841C182.327 72.6434 181.981 71.7678 181.981 70.5525C181.981 69.1985 182.543 68.1937 183.668 67.543C184.336 67.165 185.422 66.8397 186.941 66.5813L188.565 66.2751C189.373 66.122 190.012 65.9641 190.474 65.787C190.945 65.6196 191.396 65.3947 191.853 65.1028V67.744ZM195.467 52.2849C193.146 51.1126 190.478 50.5193 187.484 50.5193C182.879 50.5193 179.63 51.7107 177.736 54.103C176.554 55.6293 175.886 57.5814 175.732 59.9546H182.61C182.778 58.902 183.12 58.0742 183.624 57.4666C184.336 56.6389 185.542 56.2178 187.244 56.2178C188.772 56.2178 189.926 56.4283 190.709 56.859C191.488 57.2752 191.887 58.0455 191.887 59.1556C191.887 60.0694 191.372 60.7393 190.353 61.1747C189.777 61.4235 188.83 61.6292 187.498 61.7967L185.061 62.0885C182.293 62.4426 180.183 63.0263 178.765 63.8397C176.155 65.3325 174.857 67.744 174.857 71.0788C174.857 73.6482 175.665 75.6338 177.285 77.0357C178.9 78.4424 180.952 79.0309 183.437 79.1457C198.986 79.8395 198.813 70.9831 198.957 69.1458V58.9546C198.957 55.6867 197.794 53.4667 195.467 52.2849Z" fill="#50B4E9"/>
<path d="M248.775 70.9305C247.664 72.4041 246.073 73.141 243.992 73.141C241.916 73.141 240.315 72.4041 239.195 70.9305C238.066 69.4616 237.508 67.3755 237.508 64.6626C237.508 61.9593 238.066 59.8684 239.195 58.4139C240.315 56.945 241.916 56.2178 243.992 56.2178C246.073 56.2178 247.664 56.945 248.775 58.4139C249.885 59.8684 250.447 61.9593 250.447 64.6626C250.447 67.3755 249.885 69.4616 248.775 70.9305ZM254.461 54.5288C252.163 51.6676 248.683 50.237 244.011 50.237C239.349 50.237 235.864 51.6676 233.572 54.5288C231.274 57.39 230.13 60.7679 230.13 64.6626C230.13 68.6338 231.274 72.0261 233.572 74.8443C235.864 77.6576 239.349 79.0691 244.011 79.0691C248.683 79.0691 252.163 77.6576 254.461 74.8443C256.748 72.0261 257.892 68.6338 257.892 64.6626C257.892 60.7679 256.748 57.39 254.461 54.5288Z" fill="#50B4E9"/>
</g>
<defs>
<clipPath id="clip0">
<rect width="347" height="90" fill="white"/>
</clipPath>
</defs>
</svg>
